<svg width="191" height="50" viewBox="0 0 191 50" fill="none" xmlns="http://www.w3.org/2000/svg">
<path d="M14.3262 32.8867V42.6426C14.3262 43.7754 14.8145 44.5176 15.791 44.8691C16.2598 45.0449 16.582 45.2891 16.7578 45.6016C16.9531 45.8945 17.0508 46.4512 17.0508 47.2715C17.0508 48.0527 16.9434 48.541 16.7285 48.7363C16.5137 48.9121 16.084 49 15.4395 49H2.16797C1.46484 49 1.11328 48.3848 1.11328 47.1543C1.11328 46.1777 1.16211 45.582 1.25977 45.3672C1.35742 45.1328 1.68945 44.9277 2.25586 44.752C2.76367 44.5957 3.07617 44.4297 3.19336 44.2539C3.33008 44.0586 3.39844 43.7363 3.39844 43.2871V7.89648C3.39844 7.05664 2.88086 6.38281 1.8457 5.875C1.29883 5.58203 1.01562 5.13281 0.996094 4.52734L0.966797 3.15039C0.966797 2.56445 1.03516 2.18359 1.17188 2.00781C1.32812 1.8125 1.66016 1.71484 2.16797 1.71484H17.168C21.4844 1.71484 24.9219 3.10156 27.4805 5.875C30.0586 8.62891 31.3477 12.4473 31.3477 17.3301C31.3477 20.084 30.9473 22.5352 30.1465 24.6836C29.3652 26.832 28.3691 28.4141 27.1582 29.4297C25.9668 30.4453 24.5801 31.2754 22.998 31.9199C21.4355 32.5645 19.7656 32.8867 17.9883 32.8867H14.3262ZM14.3262 4.9668V29.5176H16.377C17.0801 29.5176 17.7051 29.1367 18.252 28.375C18.8184 27.5938 19.1016 26.3047 19.1016 24.5078V9.88867C19.1016 6.60742 18.0078 4.9668 15.8203 4.9668H14.3262ZM45.5695 38.8926H38.2453L37.923 41.5879C37.923 41.6465 37.9035 41.7344 37.8645 41.8516C37.7082 42.418 37.6301 42.9258 37.6301 43.375C37.6301 44.0781 38.0891 44.6738 39.007 45.1621C39.4953 45.416 39.798 45.6797 39.9152 45.9531C40.0324 46.2266 40.091 46.6758 40.091 47.3008C40.091 48.1016 40.0422 48.5898 39.9445 48.7656C39.8664 48.9219 39.6613 49 39.3293 49H31.5949C31.1652 49 30.9504 48.5508 30.9504 47.6523C30.9504 46.5781 31.2922 45.709 31.9758 45.0449C32.6203 44.4395 32.9914 43.7949 33.0891 43.1113L38.509 8.62891C38.6066 8.10156 38.6555 7.64258 38.6555 7.25195C38.6555 6.64648 38.2355 6.10938 37.3957 5.64062C37.0051 5.40625 36.8098 4.88867 36.8098 4.08789C36.8098 3.01367 36.8684 2.34961 36.9855 2.0957C37.1027 1.8418 37.4152 1.71484 37.923 1.71484H49.1145C49.798 1.71484 50.2766 2.03711 50.55 2.68164C50.8234 3.32617 51.0969 4.73242 51.3703 6.90039C51.4875 7.74023 51.6047 8.57031 51.7219 9.39062L56.5266 41.5879C56.7609 43.1504 57.3371 44.3418 58.2551 45.1621C58.509 45.377 58.675 45.5527 58.7531 45.6895C58.8312 45.8066 58.8703 46.1875 58.8703 46.832C58.8703 47.8281 58.802 48.4434 58.6652 48.6777C58.5285 48.8926 58.2355 49 57.7863 49H44.7492C44.3586 49 44.1633 48.6289 44.1633 47.8867C44.1633 46.9492 44.2121 46.3633 44.3098 46.1289C44.4074 45.8945 44.6906 45.6211 45.1594 45.3086C45.843 44.8789 46.1848 44.332 46.1848 43.668C46.1848 42.9844 45.9797 41.3926 45.5695 38.8926ZM42.0539 12.7598L38.802 35.5234H45.2473L42.0539 12.7598ZM75.8461 2.97461C75.9633 2.87695 76.2953 2.4375 76.8422 1.65625C77.1937 1.14844 77.6625 0.894531 78.2484 0.894531C78.3852 0.894531 78.932 0.962891 79.8891 1.09961C80.0844 1.29492 80.2309 1.70508 80.3285 2.33008L81.9105 12.2617C81.9887 12.7891 82.0277 13.1016 82.0277 13.1992C82.0277 13.5703 81.9203 13.8145 81.7055 13.9316C81.5102 14.0488 80.973 14.1074 80.0941 14.1074C79.098 14.1074 78.4535 13.9805 78.1605 13.7266C77.8676 13.4727 77.3109 12.418 76.4906 10.5625C74.7523 6.63672 73.1996 4.67383 71.8324 4.67383C70.8559 4.67383 70.3676 5.35742 70.3676 6.72461C70.3676 8.42383 71.8422 11.7637 74.7914 16.7441C78.1703 22.4863 80.3676 26.6465 81.3832 29.2246C82.4184 31.7832 82.9359 34.6543 82.9359 37.8379C82.9359 41.6074 82.0473 44.498 80.2699 46.5098C78.4926 48.5215 76.4906 49.5273 74.2641 49.5273C72.8578 49.5273 71.5004 49.127 70.1918 48.3262C69.684 48.0137 69.2836 47.8574 68.9906 47.8574C68.7367 47.8574 68.5316 48.043 68.3754 48.4141C68.0629 49.1562 67.3012 49.5273 66.0902 49.5273C65.6215 49.5273 65.2992 49.4492 65.1234 49.293C64.9672 49.1562 64.85 48.7754 64.7719 48.1504L63.307 38.3945C63.1117 37.1445 63.0141 36.4805 63.0141 36.4023C63.0141 35.8359 63.5316 35.5527 64.5668 35.5527C65.973 35.5527 66.8031 35.7383 67.057 36.1094C67.3109 36.4805 67.6723 37.3301 68.141 38.6582C69.8598 43.4043 71.5883 45.7773 73.3266 45.7773C73.9711 45.7773 74.4887 45.543 74.8793 45.0742C75.2895 44.6055 75.4945 44.0195 75.4945 43.3164C75.4945 42.0859 75.0453 40.6309 74.1469 38.9512C73.268 37.252 72.184 35.3672 70.8949 33.2969C67.809 28.3359 65.6215 24.3809 64.3324 21.4316C63.0629 18.4629 62.4281 15.4355 62.4281 12.3496C62.4281 8.87305 63.1898 6.09961 64.7133 4.0293C66.2367 1.95898 68.102 0.923828 70.309 0.923828C71.8324 0.923828 73.6781 1.60742 75.8461 2.97461ZM100.146 2.97461C100.263 2.87695 100.595 2.4375 101.142 1.65625C101.494 1.14844 101.963 0.894531 102.548 0.894531C102.685 0.894531 103.232 0.962891 104.189 1.09961C104.384 1.29492 104.531 1.70508 104.629 2.33008L106.211 12.2617C106.289 12.7891 106.328 13.1016 106.328 13.1992C106.328 13.5703 106.22 13.8145 106.005 13.9316C105.81 14.0488 105.273 14.1074 104.394 14.1074C103.398 14.1074 102.754 13.9805 102.461 13.7266C102.168 13.4727 101.611 12.418 100.791 10.5625C99.0523 6.63672 97.4996 4.67383 96.1324 4.67383C95.1559 4.67383 94.6676 5.35742 94.6676 6.72461C94.6676 8.42383 96.1422 11.7637 99.0914 16.7441C102.47 22.4863 104.668 26.6465 105.683 29.2246C106.718 31.7832 107.236 34.6543 107.236 37.8379C107.236 41.6074 106.347 44.498 104.57 46.5098C102.793 48.5215 100.791 49.5273 98.5641 49.5273C97.1578 49.5273 95.8004 49.127 94.4918 48.3262C93.984 48.0137 93.5836 47.8574 93.2906 47.8574C93.0367 47.8574 92.8316 48.043 92.6754 48.4141C92.3629 49.1562 91.6012 49.5273 90.3902 49.5273C89.9215 49.5273 89.5992 49.4492 89.4234 49.293C89.2672 49.1562 89.15 48.7754 89.0719 48.1504L87.607 38.3945C87.4117 37.1445 87.3141 36.4805 87.3141 36.4023C87.3141 35.8359 87.8316 35.5527 88.8668 35.5527C90.273 35.5527 91.1031 35.7383 91.357 36.1094C91.6109 36.4805 91.9723 37.3301 92.441 38.6582C94.1598 43.4043 95.8883 45.7773 97.6266 45.7773C98.2711 45.7773 98.7887 45.543 99.1793 45.0742C99.5895 44.6055 99.7945 44.0195 99.7945 43.3164C99.7945 42.0859 99.3453 40.6309 98.4469 38.9512C97.568 37.252 96.484 35.3672 95.1949 33.2969C92.109 28.3359 89.9215 24.3809 88.6324 21.4316C87.3629 18.4629 86.7281 15.4355 86.7281 12.3496C86.7281 8.87305 87.4898 6.09961 89.0133 4.0293C90.5367 1.95898 92.402 0.923828 94.609 0.923828C96.1324 0.923828 97.9781 1.60742 100.146 2.97461ZM110.735 4.17578V2.62305C110.735 2.01758 111.057 1.71484 111.702 1.71484H125.735C126.262 1.71484 126.604 1.7832 126.761 1.91992C126.917 2.05664 126.995 2.4668 126.995 3.15039C126.995 4.18555 126.936 4.83008 126.819 5.08398C126.721 5.33789 126.487 5.49414 126.116 5.55273C124.905 5.76758 124.3 6.53906 124.3 7.86719V43.082C124.3 43.8242 124.739 44.4102 125.618 44.8398C126.184 45.1133 126.526 45.3574 126.643 45.5723C126.761 45.7871 126.819 46.1582 126.819 46.6855V47.8281C126.819 48.4531 126.761 48.8047 126.643 48.8828C126.526 48.9609 126.223 49 125.735 49H111.438C110.891 49 110.618 48.7852 110.618 48.3555C110.618 46.9492 110.667 46.0898 110.764 45.7773C110.862 45.4648 111.204 45.2207 111.79 45.0449C112.845 44.752 113.372 44.1953 113.372 43.375V8.59961C113.372 7.7793 113.274 7.16406 113.079 6.75391C112.884 6.32422 112.454 5.97266 111.79 5.69922C111.302 5.48438 110.999 5.29883 110.882 5.14258C110.784 4.9668 110.735 4.64453 110.735 4.17578ZM145.465 0.923828C148.336 0.923828 150.816 1.89062 152.906 3.82422C155.016 5.73828 156.734 8.47266 158.062 12.0273C159.391 15.582 160.055 20.1426 160.055 25.709C160.055 32.3887 158.756 38.0332 156.158 42.6426C153.58 47.2324 149.938 49.5273 145.23 49.5273C140.758 49.5273 137.232 47.2812 134.654 42.7891C132.076 38.2969 130.787 32.4961 130.787 25.3867C130.787 18.1016 132.105 12.2031 134.742 7.69141C137.398 3.17969 140.973 0.923828 145.465 0.923828ZM147.779 7.86719C147.779 5.42578 146.988 4.20508 145.406 4.20508C144.742 4.20508 144.176 4.50781 143.707 5.11328C143.238 5.71875 143.004 6.46094 143.004 7.33984V42.7012C143.004 43.8926 143.238 44.8008 143.707 45.4258C144.176 46.0312 144.732 46.334 145.377 46.334C146.1 46.334 146.676 45.9922 147.105 45.3086C147.555 44.625 147.779 43.8633 147.779 43.0234V7.86719ZM171.64 22.1934V42.877C171.64 43.7363 172.128 44.3809 173.105 44.8105C173.925 45.1816 174.335 45.709 174.335 46.3926C174.335 47.8184 174.296 48.6094 174.218 48.7656C174.159 48.9219 173.876 49 173.368 49H165.575C165.185 49 164.941 48.8535 164.843 48.5605C164.745 48.248 164.696 47.4961 164.696 46.3047C164.696 45.7578 164.96 45.377 165.488 45.1621C166.503 44.7129 167.011 44.2051 167.011 43.6387V9.00977C167.011 8.16992 166.933 7.54492 166.777 7.13477C166.62 6.70508 166.269 6.35352 165.722 6.08008C165.234 5.8457 164.902 5.5918 164.726 5.31836C164.57 5.04492 164.491 4.52734 164.491 3.76562C164.491 2.39844 164.853 1.71484 165.575 1.71484H173.72L183.564 24.5371V7.7207C183.564 6.7832 183.085 6.11914 182.128 5.72852C181.562 5.47461 181.191 5.19141 181.015 4.87891C180.859 4.54688 180.78 3.91211 180.78 2.97461C180.78 2.38867 180.839 2.03711 180.956 1.91992C181.073 1.7832 181.298 1.71484 181.63 1.71484H189.716C190.165 1.77344 190.39 2.41797 190.39 3.64844C190.39 4.37109 190.341 4.83008 190.243 5.02539C190.165 5.2207 189.97 5.38672 189.657 5.52344C188.974 5.79687 188.544 6.06055 188.368 6.31445C188.193 6.56836 188.105 6.91992 188.105 7.36914V49H183.124L171.64 22.1934Z" fill="black"/>
</svg>
